<svg width="128" height="159" viewBox="0 0 128 159" fill="none" xmlns="http://www.w3.org/2000/svg">
<path d="M6.36475 30.4924C6.36475 19.7241 6.36475 14.3399 9.4146 10.769C9.84768 10.262 10.3199 9.7897 10.827 9.35662C14.3979 6.30676 19.7821 6.30676 30.5503 6.30676H96.7425C107.511 6.30676 112.895 6.30676 116.466 9.35662C116.973 9.7897 117.445 10.262 117.878 10.769C120.928 14.3399 120.928 19.7241 120.928 30.4924V115.684C120.928 123.723 120.928 127.742 118.937 130.87C118.65 131.321 118.335 131.754 117.993 132.165C115.625 135.018 111.798 136.248 104.145 138.709L71.0489 149.349C67.5729 150.467 65.835 151.025 64.0423 151.081C63.7784 151.089 63.5144 151.089 63.2505 151.081C61.4578 151.025 59.7199 150.467 56.244 149.349L23.1479 138.709C15.4947 136.248 11.6681 135.018 9.29978 132.165C8.95826 131.754 8.64299 131.321 8.35586 130.87C6.36475 127.742 6.36475 123.723 6.36475 115.684V30.4924Z" fill="#DE1448"/>
<path d="M33.4199 2.31445H93.8721C101.37 2.31445 106.785 2.31832 110.95 2.82422C115.061 3.32358 117.642 4.28277 119.623 5.97461C120.232 6.49428 120.799 7.06049 121.318 7.66895C123.01 9.6499 123.968 12.2319 124.468 16.3428C124.974 20.5075 124.979 25.9218 124.979 33.4199V114.385C124.979 120.012 124.976 124.057 124.645 127.241C124.319 130.375 123.691 132.459 122.571 134.21C122.224 134.753 121.843 135.273 121.431 135.768C120.099 137.363 118.301 138.59 115.412 139.846C112.476 141.122 108.621 142.344 103.255 144.042L73.0283 153.604C68.1732 155.14 66.1589 155.757 64.1143 155.819C63.8025 155.829 63.4905 155.829 63.1787 155.819C61.134 155.757 59.119 155.141 54.2637 153.604L24.0381 144.042C18.6725 142.345 14.8169 141.122 11.8809 139.846C8.99135 138.59 7.19285 137.363 5.86133 135.768C5.44871 135.273 5.06768 134.753 4.7207 134.21C3.60118 132.459 2.97425 130.375 2.64844 127.241C2.31738 124.057 2.31445 120.013 2.31445 114.385V33.4199C2.31445 25.9218 2.31834 20.5075 2.82422 16.3428C3.32357 12.2319 4.28272 9.6499 5.97461 7.66895C6.49416 7.06067 7.06067 6.49416 7.66895 5.97461C9.6499 4.28272 12.2319 3.32357 16.3428 2.82422C20.5075 2.31834 25.9218 2.31445 33.4199 2.31445Z" stroke="#DE1448" stroke-width="4.62882"/>
<path d="M37.3109 60.2645L29.7073 46.8348H26.4486V60.2645H19.5363V25.8014H32.4723C35.1385 25.8014 37.4097 26.2787 39.2859 27.2333C41.1621 28.1549 42.5611 29.4222 43.4827 31.0351C44.4373 32.615 44.9146 34.3925 44.9146 36.3675C44.9146 38.6387 44.2562 40.6959 42.9396 42.5392C41.623 44.3496 39.6644 45.6004 37.0641 46.2917L45.3096 60.2645H37.3109ZM26.4486 41.6505H32.2254C34.1016 41.6505 35.5006 41.2061 36.4222 40.3174C37.3439 39.3957 37.8047 38.1285 37.8047 36.5156C37.8047 34.9356 37.3439 33.7177 36.4222 32.8619C35.5006 31.9732 34.1016 31.5288 32.2254 31.5288H26.4486V41.6505ZM58.0789 31.3807V40.0211H69.6818V45.5017H58.0789V54.6359H71.1631V60.2645H51.1666V25.752H71.1631V31.3807H58.0789ZM89.492 25.8014C93.1128 25.8014 96.2892 26.5091 99.0212 27.9245C101.786 29.3399 103.909 31.3642 105.39 33.9975C106.905 36.5979 107.662 39.6262 107.662 43.0823C107.662 46.5385 106.905 49.5668 105.39 52.1672C103.909 54.7346 101.786 56.726 99.0212 58.1414C96.2892 59.5568 93.1128 60.2645 89.492 60.2645H77.4448V25.8014H89.492ZM89.2452 54.389C92.8659 54.389 95.6638 53.4015 97.6388 51.4266C99.6137 49.4516 100.601 46.6702 100.601 43.0823C100.601 39.4945 99.6137 36.6966 97.6388 34.6887C95.6638 32.648 92.8659 31.6276 89.2452 31.6276H84.3571V54.389H89.2452Z" fill="white"/>
<path d="M29.2601 93.5851C27.2404 93.5851 25.4306 93.2572 23.8305 92.6015C22.2305 91.9457 20.9452 90.9752 19.9747 89.69C19.0305 88.4047 18.5321 86.8571 18.4796 85.0472H25.6404C25.7453 86.0702 26.0994 86.8571 26.7027 87.4079C27.306 87.9325 28.0929 88.1948 29.0634 88.1948C30.0602 88.1948 30.8471 87.9719 31.4241 87.526C32.0012 87.0538 32.2897 86.4112 32.2897 85.5981C32.2897 84.9161 32.0536 84.3522 31.5815 83.9062C31.1356 83.4603 30.5716 83.0931 29.8897 82.8046C29.2339 82.5161 28.2896 82.1882 27.0568 81.821C25.2732 81.2701 23.8174 80.7193 22.6895 80.1685C21.5616 79.6176 20.5911 78.8045 19.778 77.7291C18.9649 76.6537 18.5583 75.2503 18.5583 73.5192C18.5583 70.9486 19.4895 68.942 21.3518 67.4994C23.2141 66.0305 25.6404 65.2961 28.6306 65.2961C31.6733 65.2961 34.1258 66.0305 35.9881 67.4994C37.8505 68.942 38.8472 70.9617 38.9784 73.5585H31.6995C31.6471 72.6667 31.3192 71.9716 30.7159 71.4732C30.1126 70.9486 29.3388 70.6863 28.3946 70.6863C27.5814 70.6863 26.9257 70.9093 26.4273 71.3552C25.9289 71.7749 25.6798 72.3913 25.6798 73.2044C25.6798 74.0962 26.0994 74.7913 26.9388 75.2897C27.7782 75.7881 29.0897 76.3258 30.8733 76.9028C32.6569 77.5061 34.0996 78.0832 35.2012 78.634C36.3291 79.1848 37.2996 79.9849 38.1128 81.0341C38.9259 82.0833 39.3325 83.4341 39.3325 85.0866C39.3325 86.6604 38.9259 88.0899 38.1128 89.3752C37.3259 90.6605 36.1717 91.6834 34.6504 92.4441C33.1291 93.2048 31.3323 93.5851 29.2601 93.5851ZM50.2009 71.0798V76.6668H59.2109V81.8603H50.2009V87.9194H60.3912V93.3097H43.4729V65.6895H60.3912V71.0798H50.2009ZM81.9529 88.4309H71.6445L69.992 93.3097H62.9493L72.9429 65.6895H80.7332L90.7268 93.3097H83.6054L81.9529 88.4309ZM80.2217 83.2374L76.7987 73.1257L73.415 83.2374H80.2217ZM100.496 88.1162H109.31V93.3097H93.7684V65.6895H100.496V88.1162Z" fill="white"/>
<path d="M30.3144 117.775L28.3703 115.161C27.7943 115.277 27.2327 115.334 26.6854 115.334C25.2598 115.334 23.9493 115.003 22.754 114.341C21.5732 113.678 20.6299 112.757 19.9243 111.576C19.233 110.38 18.8874 109.041 18.8874 107.558C18.8874 106.075 19.233 104.742 19.9243 103.562C20.6299 102.381 21.5732 101.459 22.754 100.797C23.9493 100.134 25.2598 99.803 26.6854 99.803C28.1111 99.803 29.4144 100.134 30.5953 100.797C31.7905 101.459 32.7266 102.381 33.4034 103.562C34.0946 104.742 34.4403 106.075 34.4403 107.558C34.4403 108.854 34.1738 110.042 33.641 111.122C33.1226 112.188 32.3954 113.073 31.4593 113.779L34.7859 117.775H30.3144ZM22.6676 107.558C22.6676 108.897 23.0276 109.97 23.7477 110.776C24.4821 111.568 25.4614 111.964 26.6854 111.964C27.8951 111.964 28.86 111.561 29.58 110.755C30.3144 109.948 30.6817 108.883 30.6817 107.558C30.6817 106.219 30.3144 105.153 29.58 104.361C28.86 103.554 27.8951 103.151 26.6854 103.151C25.4614 103.151 24.4821 103.547 23.7477 104.339C23.0276 105.131 22.6676 106.204 22.6676 107.558ZM40.1664 100.019V109.092C40.1664 109.999 40.3896 110.697 40.8361 111.187C41.2825 111.676 41.9377 111.921 42.8018 111.921C43.6658 111.921 44.3283 111.676 44.7891 111.187C45.2499 110.697 45.4803 109.999 45.4803 109.092V100.019H49.1741V109.07C49.1741 110.424 48.8861 111.568 48.3101 112.504C47.734 113.441 46.9564 114.146 45.9771 114.621C45.0123 115.097 43.9322 115.334 42.737 115.334C41.5417 115.334 40.4688 115.104 39.5184 114.643C38.5823 114.168 37.8407 113.462 37.2935 112.526C36.7462 111.576 36.4726 110.424 36.4726 109.07V100.019H40.1664ZM61.2077 112.504H55.5481L54.6409 115.183H50.7743L56.261 100.019H60.538L66.0247 115.183H62.1149L61.2077 112.504ZM60.2572 109.653L58.3779 104.102L56.5202 109.653H60.2572ZM71.3884 112.332H76.227V115.183H67.6946V100.019H71.3884V112.332ZM81.6827 100.019V115.183H77.9889V100.019H81.6827ZM95.2681 100.019V102.978H91.2503V115.183H87.5565V102.978H83.5387V100.019H95.2681ZM110.126 100.019L104.877 110.172V115.183H101.183V110.172L95.9339 100.019H100.125L103.062 106.37L105.978 100.019H110.126Z" fill="white"/>
</svg>
